<?xml version="1.0" encoding="UTF-8"?>
<!DOCTYPE svg PUBLIC "-//W3C//DTD SVG 1.1//EN" "http://www.w3.org/Graphics/SVG/1.1/DTD/svg11.dtd">
<!-- Creator: CorelDRAW X8 -->
<svg xmlns="http://www.w3.org/2000/svg" xml:space="preserve" width="24.6944mm" height="28.5748mm" version="1.1" style="shape-rendering:geometricPrecision; text-rendering:geometricPrecision; image-rendering:optimizeQuality; fill-rule:evenodd; clip-rule:evenodd"
viewBox="0 0 2469 2857"
 xmlns:xlink="http://www.w3.org/1999/xlink">
 <defs>
  <style type="text/css">
   <![CDATA[
    .fil0 {fill:white}
   ]]>
  </style>
 </defs>
 <g id="Capa_x0020_1">
  <metadata id="CorelCorpID_0Corel-Layer"/>
  <path class="fil0" d="M1235 2852c678,0 1227,-550 1227,-1228 0,-273 -88,-524 -238,-728l91 -91c38,-38 38,-98 0,-135l-112 -113c-37,-37 -98,-37 -135,0l-90 90c-176,-135 -390,-222 -623,-245l0 -162 130 0c37,0 67,-30 67,-68l0 -98c0,-38 -30,-68 -67,-68l-500 0c-37,0 -68,30 -68,68l0 98c0,38 31,68 68,68l129 0 0 162c-621,61 -1107,584 -1107,1222 0,678 550,1228 1228,1228zm803 -1228l0 0c0,42 -34,76 -76,76l-550 0c-1,0 -3,0 -4,-1 -29,67 -96,114 -173,114 -105,0 -189,-85 -189,-189 0,-74 42,-137 103,-168l0 -421c0,-47 38,-86 86,-86l0 0c47,0 86,39 86,86l0 421c38,19 69,52 87,92 1,0 3,0 4,0l550 0c42,0 76,34 76,76zm-803 963c531,0 963,-431 963,-963 0,-532 -432,-963 -963,-963 -532,0 -963,431 -963,963 0,532 431,963 963,963z"/>
 </g>
</svg>
