<?xml version="1.0" encoding="UTF-8"?>
<!DOCTYPE svg PUBLIC "-//W3C//DTD SVG 1.1//EN" "http://www.w3.org/Graphics/SVG/1.1/DTD/svg11.dtd">
<!-- Creator: CorelDRAW X8 -->
<svg xmlns="http://www.w3.org/2000/svg" xml:space="preserve" width="159.103mm" height="106.892mm" version="1.1" style="shape-rendering:geometricPrecision; text-rendering:geometricPrecision; image-rendering:optimizeQuality; fill-rule:evenodd; clip-rule:evenodd"
viewBox="0 0 15910 10689"
 xmlns:xlink="http://www.w3.org/1999/xlink">
 <defs>
  <style type="text/css">
   <![CDATA[
    .fil1 {fill:#F43679}
    .fil0 {fill:#FFF3E3}
   ]]>
  </style>
 </defs>
 <g id="Capa_x0020_1">
  <metadata id="CorelCorpID_0Corel-Layer"/>
  <g id="_1996033822864">
   <path class="fil0" d="M15802 7344c-275,1601 -239,2291 -2307,3130 -1097,446 -5948,67 -6812,-70 -3987,-632 -6305,719 -6611,-3161 -51,-647 -309,-3590 739,-3897 4308,-1262 8873,-1167 13509,-706 1008,101 1889,2326 1482,4704z"/>
   <path class="fil1" d="M995 690c-73,1083 0,1877 1905,2650 286,116 4807,-102 5514,-176 3260,-337 5574,145 6043,-1405 78,-258 455,-1434 -375,-1534 -3750,-449 -8467,-101 -12508,65 -635,26 -475,303 -579,400z"/>
  </g>
 </g>
</svg>
