<?xml version="1.0" encoding="UTF-8"?>
<!DOCTYPE svg PUBLIC "-//W3C//DTD SVG 1.1//EN" "http://www.w3.org/Graphics/SVG/1.1/DTD/svg11.dtd">
<!-- Creator: CorelDRAW X8 -->
<svg xmlns="http://www.w3.org/2000/svg" xml:space="preserve" width="159.103mm" height="138.642mm" version="1.1" style="shape-rendering:geometricPrecision; text-rendering:geometricPrecision; image-rendering:optimizeQuality; fill-rule:evenodd; clip-rule:evenodd"
viewBox="0 0 15910 13864"
 xmlns:xlink="http://www.w3.org/1999/xlink">
 <defs>
  <style type="text/css">
   <![CDATA[
    .fil1 {fill:#F43679}
    .fil0 {fill:#FFF3E3}
   ]]>
  </style>
 </defs>
 <g id="Capa_x0020_1">
  <metadata id="CorelCorpID_0Corel-Layer"/>
  <g id="_2246742581648">
   <g id="_1996033822864">
    <path class="fil0" d="M15802 9251c-275,2210 -239,3162 -2307,4321 -1097,615 -5948,92 -6812,-97 -3987,-872 -6305,993 -6611,-4364 -51,-893 -309,-4956 739,-5380 4308,-1742 8873,-1611 13509,-974 1008,139 1889,3211 1482,6494l0 0z"/>
    <path class="fil1" d="M995 687c-73,1083 0,1877 1905,2650 286,116 4807,-102 5514,-176 3260,-337 5574,145 6043,-1405 78,-258 455,-1434 -375,-1534 -3750,-449 -8467,-101 -12508,65 -635,26 -475,303 -579,400z"/>
   </g>
  </g>
 </g>
</svg>
